<svg xmlns="http://www.w3.org/2000/svg" viewBox="0 0 1200 560" width="1200" height="560">
  <defs>
    <radialGradient id="bg" cx="20%" cy="12%" r="95%">
      <stop offset="0%" stop-color="#141824"/>
      <stop offset="100%" stop-color="#06070a"/>
    </radialGradient>
    <linearGradient id="accent" gradientUnits="userSpaceOnUse" x1="40" y1="0" x2="1160" y2="560">
      <stop offset="0%" stop-color="#5be3ff"/>
      <stop offset="100%" stop-color="#c56bff"/>
    </linearGradient>
    <style>
      .mono { font-family: ui-monospace, SFMono-Regular, Menlo, Consolas, monospace; }
      .sans { font-family: -apple-system, BlinkMacSystemFont, "Segoe UI", Helvetica, Arial, sans-serif; }
    </style>
  </defs>

  <rect x="0" y="0" width="1200" height="560" rx="20" fill="url(#bg)"/>
  <rect x="1" y="1" width="1198" height="558" rx="19" fill="none" stroke="#262b36" stroke-width="1.5"/>

  <text x="48" y="56" class="mono" font-size="14" letter-spacing="2" fill="#7d8698">KARMA &#183; CASPER TESTNET &#183; ON-CHAIN STATUS</text>

  <text x="48" y="112" class="sans" font-size="36" font-weight="800" fill="#eef1f6">Locked. Governed. Already live-disputed.</text>
  <rect x="48" y="128" width="600" height="4" rx="2" fill="url(#accent)"/>

  <g class="mono" font-size="18">
    <g>
      <rect x="48" y="160" width="640" height="46" rx="23" fill="#0d2318" stroke="#1f4a30"/>
      <circle cx="74" cy="183" r="5.5" fill="#34c77b"/>
      <text x="92" y="190" fill="#8ff0b6">lock_status: Locked (platform-enforced, no future upgrade)</text>
    </g>
    <g>
      <rect x="48" y="216" width="640" height="46" rx="23" fill="#0d2318" stroke="#1f4a30"/>
      <circle cx="74" cy="239" r="5.5" fill="#34c77b"/>
      <text x="92" y="246" fill="#8ff0b6">2-of-2 multisig governance + 30-min timelock, enforced</text>
    </g>
    <g>
      <rect x="48" y="272" width="640" height="46" rx="23" fill="#0d2318" stroke="#1f4a30"/>
      <circle cx="74" cy="295" r="5.5" fill="#34c77b"/>
      <text x="92" y="302" fill="#8ff0b6">N-of-M panel (3, threshold 2) — live-disputed 2026-07-25</text>
    </g>
    <g>
      <rect x="48" y="328" width="640" height="46" rx="23" fill="#0d2318" stroke="#1f4a30"/>
      <circle cx="74" cy="351" r="5.5" fill="#34c77b"/>
      <text x="92" y="358" fill="#8ff0b6">155/155 Rust + 899 TypeScript tests passing</text>
    </g>
    <g>
      <rect x="48" y="384" width="640" height="46" rx="23" fill="#0d2318" stroke="#1f4a30"/>
      <circle cx="74" cy="407" r="5.5" fill="#34c77b"/>
      <text x="92" y="414" fill="#8ff0b6">50+ real transactions on testnet.cspr.live</text>
    </g>
    <g>
      <rect x="48" y="440" width="640" height="46" rx="23" fill="#0d2318" stroke="#1f4a30"/>
      <circle cx="74" cy="463" r="5.5" fill="#34c77b"/>
      <text x="92" y="470" fill="#8ff0b6">1 spec, 3 independent chains: Casper, Stellar, Pharos</text>
    </g>
  </g>

  <text x="48" y="522" class="sans" font-size="15" fill="#9aa3ac">Every line above is a real transaction hash or a real test run, not a mock — full tx-by-tx</text>
  <text x="48" y="544" class="sans" font-size="15" fill="#9aa3ac">evidence in DEMO_CASPER.md, DEMO_STELLAR.md, and DEMO.md.</text>

  <text x="740" y="185" class="mono" font-size="13" fill="#5f6870">snapshot</text>
  <text x="740" y="203" class="mono" font-size="13" fill="#5f6870">2026-07-26</text>
</svg>
